<?xml version="1.0" standalone="no"?><!DOCTYPE svg PUBLIC "-//W3C//DTD SVG 1.1//EN" "http://www.w3.org/Graphics/SVG/1.1/DTD/svg11.dtd"><svg t="1581591393704" class="icon" viewBox="0 0 1024 1024" version="1.1" xmlns="http://www.w3.org/2000/svg" p-id="5817" xmlns:xlink="http://www.w3.org/1999/xlink" width="200" height="200"><defs><style type="text/css">@font-face { font-family: element-icons; src: url("chrome-extension://moombeodfomdpjnpocobemoiaemednkg/fonts/element-icons.woff") format("woff"), url("chrome-extension://moombeodfomdpjnpocobemoiaemednkg/fonts/element-icons.ttf ") format("truetype"); }
</style></defs><path d="M511.3 63.4c-247.7 0-448.4 200.8-448.4 448.4 0 247.6 200.8 448.4 448.4 448.4 247.7 0 448.4-200.8 448.4-448.4 0.1-247.7-200.7-448.4-448.4-448.4zM710 621.3s-14.2 38.7-40.2 73.5c0 0 46.5 15.8 42.6 56.9 0 0 1.6 45.9-99.4 42.7 0 0-71-5.5-92.3-35.6H502c-21.3 30-92.3 35.6-92.3 35.6-101 3.2-99.4-42.7-99.4-42.7-3.9-41.1 42.6-56.9 42.6-56.9-26-34.8-40.2-73.5-40.2-73.5-63.1 102-56.8-14.2-56.8-14.2 11.8-68.8 61.5-113.8 61.5-113.8-7.1-62.5 18.9-73.5 18.9-73.5 5.5-193.2 171.5-189.9 175-189.8 3.5-0.1 169.5-3.5 175 189.7 0 0 26 11.1 18.9 73.5 0 0 49.7 45.1 61.5 113.8 0.1 0.1 6.4 116.3-56.7 14.3z m0 0" fill="#4CAFE9" p-id="5818"></path></svg>